<svg width="320" height="282" viewBox="0 0 320 282" fill="none" xmlns="http://www.w3.org/2000/svg">
<rect width="235.977" height="64.8376" transform="matrix(0.965792 -0.259318 0.258321 0.966059 27.634 65.1486)" fill="#B0C9E7"/>
<path d="M210.909 14.1796L251.364 59.8661L211.818 70.5005L171.364 24.8139L145 31.9035L185.454 77.59L145.909 88.2244L105.454 42.5379L79.0906 49.6274L119.545 95.3139L79.9993 105.948L39.5449 60.2618L26.363 63.8066C11.863 67.7058 3.16967 82.7707 7.04458 97.2842L49.3164 255.612C53.1913 270.126 68.2253 278.81 82.7254 274.911L293.635 218.194C308.136 214.295 316.829 199.23 312.954 184.717L263.637 0.000458752L210.909 14.1796Z" fill="black"/>
<path d="M114.481 134.382C117.516 133.294 120.763 132.669 124.222 132.509C127.741 132.329 130.863 132.574 133.588 133.241C134.346 133.334 135.311 133.561 136.483 133.922C137.637 134.222 138.338 134.665 138.588 135.25C138.837 135.834 138.735 136.563 138.28 137.436C137.867 138.23 137.557 138.825 137.351 139.222C137.287 139.441 137.182 139.739 137.036 140.117C136.95 140.476 136.833 140.844 136.687 141.222C136.541 141.6 136.355 141.957 136.129 142.293C135.964 142.611 135.761 142.808 135.52 142.883C135.237 143.039 134.668 143.019 133.813 142.824C132.998 142.55 132.412 142.369 132.054 142.283C129.329 141.615 126.286 141.413 122.925 141.675C119.564 141.937 116.19 142.999 112.802 144.863C109.553 146.748 106.885 149.114 104.799 151.961C102.712 154.807 101.251 157.855 100.416 161.103C99.7788 163.294 99.4379 165.691 99.393 168.292C99.4085 170.875 99.9309 173.596 100.96 176.457C101.854 179.095 103.022 181.447 104.465 183.514C105.949 185.501 107.587 187.241 109.379 188.733C111.212 190.146 113.2 191.312 115.342 192.23C117.465 193.087 119.672 193.686 121.963 194.026C124.194 194.385 126.721 194.418 129.543 194.127C132.346 193.775 135.117 192.902 137.858 191.508C139.571 190.637 141.137 189.613 142.556 188.437C143.974 187.26 145.235 186.001 146.337 184.658C146.581 184.382 146.938 183.938 147.408 183.326C147.859 182.653 148.266 182.26 148.627 182.146C149.17 181.975 149.795 182.176 150.505 182.749C151.255 183.242 151.868 183.613 152.343 183.862C152.679 184.088 153.273 184.398 154.125 184.793C154.978 185.188 155.489 185.658 155.659 186.201C155.83 186.744 155.629 187.372 155.058 188.082C154.546 188.774 154.178 189.288 153.952 189.625C152.726 191.205 151.342 192.702 149.799 194.117C148.317 195.513 146.688 196.756 144.911 197.846C143.638 198.645 142.217 199.391 140.647 200.084C139.137 200.759 137.559 201.322 135.913 201.774C134.347 202.267 132.772 202.63 131.19 202.863C129.627 203.156 128.156 203.321 126.777 203.357C121.181 203.461 115.976 202.38 111.161 200.115C106.345 197.849 102.263 194.756 98.9148 190.834C97.1329 188.742 95.5086 186.201 94.0418 183.213C92.6353 180.206 91.6601 177.097 91.1161 173.884C90.0626 167.78 90.3873 162.271 92.0901 157.356C93.774 152.381 96.3273 147.961 99.75 144.096C101.623 142.047 103.732 140.222 106.077 138.621C108.482 137.001 111.283 135.588 114.481 134.382Z" fill="#B0C9E8"/>
<path d="M151.924 149.461C151.772 148.978 151.679 148.576 151.645 148.255C151.671 147.915 151.927 147.569 152.412 147.217C152.574 147.1 152.986 146.937 153.649 146.728C154.353 146.44 155.097 146.173 155.88 145.926C156.724 145.66 157.526 145.474 158.287 145.367C159.029 145.2 159.519 145.178 159.757 145.302C160.092 145.528 160.41 146.225 160.709 147.391C161.069 148.538 161.382 149.534 161.647 150.38L171.844 182.896C171.977 183.318 172.128 183.801 172.299 184.345C172.469 184.888 172.6 185.411 172.691 185.913C172.843 186.396 172.955 186.858 173.027 187.3C173.08 187.681 173.066 187.951 172.983 188.11C172.9 188.269 172.477 188.502 171.712 188.809C171.008 189.097 170.204 189.383 169.3 189.668C168.476 189.994 167.662 190.25 166.86 190.436C166.058 190.623 165.538 190.654 165.3 190.529C164.904 190.322 164.536 189.675 164.195 188.589C163.835 187.441 163.504 186.385 163.201 185.418L158.031 168.934C157.444 167.062 156.874 165.351 156.321 163.8C155.81 162.17 155.318 160.6 154.844 159.09C154.371 157.58 153.898 156.071 153.424 154.561C152.932 152.991 152.432 151.291 151.924 149.461Z" fill="#B0C9E8"/>
<path d="M169.002 141.396C170.453 141.801 172.08 142.45 173.883 143.342C175.746 144.215 177.41 144.984 178.877 145.65C182.92 147.562 186.843 149.411 190.648 151.199C194.494 152.907 198.517 154.758 202.718 156.753C202.956 156.877 203.322 157.093 203.816 157.402C204.291 157.651 204.766 157.899 205.241 158.147C205.777 158.377 206.263 158.555 206.7 158.683C207.138 158.811 207.458 158.776 207.661 158.58C207.924 158.364 207.952 157.924 207.744 157.26C207.577 156.516 207.427 155.933 207.294 155.51L202.068 138.845C201.935 138.422 201.744 137.919 201.495 137.334C201.286 136.669 201.087 136.035 200.898 135.432C200.709 134.828 200.568 134.275 200.477 133.773C200.367 133.21 200.374 132.81 200.498 132.572C200.705 132.175 201.239 131.874 202.102 131.669C203.024 131.445 203.817 131.228 204.48 131.02C205.022 130.849 205.706 130.6 206.531 130.274C207.416 129.929 208.065 129.891 208.48 130.158C208.718 130.282 208.912 130.586 209.064 131.069C209.257 131.473 209.438 131.946 209.609 132.49C209.779 133.033 209.92 133.586 210.03 134.148C210.2 134.692 210.342 135.145 210.456 135.507L221.278 170.015C221.562 170.921 221.876 171.817 222.221 172.704C222.625 173.572 222.7 174.444 222.445 175.32C221.545 175.405 220.689 175.21 219.878 174.736C219.067 174.261 218.275 173.847 217.502 173.493C212.31 171.081 207.097 168.709 201.863 166.377C196.69 164.025 191.418 161.572 186.048 159.016C185.652 158.809 185.187 158.591 184.651 158.362C184.116 158.132 183.716 158.125 183.453 158.341C183.231 158.477 183.166 158.796 183.257 159.298C183.348 159.8 183.498 160.384 183.706 161.048C183.895 161.652 184.085 162.255 184.274 162.859C184.524 163.444 184.696 163.888 184.791 164.189L188.711 176.689C188.824 177.051 188.976 177.534 189.165 178.138C189.415 178.723 189.634 179.317 189.823 179.921C189.994 180.464 190.134 181.017 190.244 181.58C190.336 182.082 190.319 182.452 190.195 182.69C189.989 183.086 189.454 183.388 188.592 183.593C187.748 183.858 186.995 184.096 186.332 184.304C185.729 184.494 184.976 184.731 184.072 185.016C183.248 185.342 182.637 185.402 182.241 185.194C182.064 185.051 181.888 184.808 181.714 184.465C181.582 184.042 181.44 183.589 181.288 183.106C181.118 182.563 180.948 182.019 180.777 181.476C180.607 180.932 180.446 180.419 180.294 179.936L169.955 146.967C169.822 146.545 169.68 146.092 169.529 145.609C169.358 145.065 169.197 144.552 169.046 144.069C168.894 143.586 168.782 143.124 168.71 142.682C168.638 142.24 168.634 141.91 168.697 141.691C168.739 141.611 168.789 141.562 168.85 141.543C168.91 141.524 168.961 141.475 169.002 141.396Z" fill="#B0C9E8"/>
<path d="M217.313 127.178C217.738 126.845 218.502 126.538 219.606 126.256C220.77 125.956 221.864 125.645 222.888 125.322L233.644 121.935C234.006 121.821 234.427 121.688 234.91 121.537C235.433 121.305 235.936 121.114 236.418 120.962C236.9 120.81 237.331 120.708 237.712 120.654C238.152 120.582 238.491 120.608 238.729 120.732C239.144 120.999 239.435 121.505 239.602 122.248C239.769 122.992 239.975 123.756 240.222 124.541C240.392 125.085 240.64 125.769 240.965 126.596C241.291 127.422 241.36 128.064 241.172 128.521C241.067 128.82 240.722 129.094 240.139 129.344C239.615 129.575 239.022 129.795 238.359 130.004C237.697 130.213 236.994 130.401 236.252 130.568C235.57 130.716 235.019 130.857 234.597 130.99C234.235 131.104 233.723 131.265 233.06 131.474C232.378 131.622 231.676 131.81 230.953 132.038C230.29 132.246 229.667 132.476 229.083 132.726C228.5 132.976 228.116 133.23 227.931 133.487C227.807 133.725 227.801 134.125 227.911 134.688C228.021 135.25 228.19 135.894 228.417 136.618C228.625 137.282 228.833 137.946 229.042 138.611C229.31 139.256 229.501 139.76 229.615 140.122C229.729 140.484 229.859 141.007 230.008 141.69C230.156 142.373 230.334 143.047 230.542 143.711C230.75 144.375 230.979 145 231.229 145.585C231.46 146.109 231.703 146.464 231.96 146.648C232.216 146.833 232.625 146.87 233.186 146.76C233.748 146.649 234.33 146.499 234.932 146.31C235.595 146.101 236.218 145.871 236.802 145.621C237.386 145.371 237.858 145.189 238.22 145.075C238.4 145.018 238.792 144.895 239.395 144.705C240.039 144.436 240.692 144.197 241.355 143.988C242.018 143.78 242.66 143.611 243.281 143.481C243.884 143.292 244.304 143.259 244.542 143.383C244.938 143.59 245.268 144.116 245.533 144.962C245.798 145.807 246.026 146.531 246.215 147.135C246.442 147.86 246.718 148.635 247.044 149.462C247.35 150.228 247.4 150.809 247.194 151.206C247.089 151.504 246.774 151.769 246.251 152C245.788 152.213 245.255 152.414 244.652 152.603C244.05 152.793 243.417 152.992 242.754 153.201C242.133 153.33 241.581 153.471 241.099 153.623C240.737 153.737 240.246 153.858 239.624 153.988C239.003 154.117 238.361 154.286 237.698 154.495C237.095 154.685 236.532 154.895 236.009 155.126C235.485 155.357 235.132 155.601 234.947 155.858C234.801 156.236 234.811 156.797 234.978 157.541C235.126 158.224 235.398 158.669 235.794 158.876C236.051 159.06 236.46 159.098 237.021 158.987C237.643 158.858 238.285 158.689 238.948 158.48C239.671 158.252 240.354 158.004 240.998 157.735C241.642 157.466 242.205 157.255 242.687 157.103C243.109 156.971 243.651 156.8 244.314 156.591C244.958 156.322 245.611 156.083 246.274 155.874C246.997 155.647 247.67 155.468 248.291 155.339C248.913 155.209 249.352 155.237 249.608 155.421C249.846 155.546 250.118 155.991 250.424 156.757C250.731 157.523 250.996 158.368 251.219 159.293C251.504 160.199 251.708 161.063 251.834 161.886C252.001 162.629 252.023 163.12 251.899 163.358C251.775 163.596 251.511 163.812 251.108 164.005C250.705 164.198 250.223 164.35 249.662 164.461C249.12 164.631 248.568 164.772 248.007 164.882C247.464 165.053 247.012 165.196 246.651 165.309L235.353 168.867C234.991 168.981 234.539 169.124 233.997 169.294C233.473 169.525 232.941 169.726 232.398 169.897C231.856 170.068 231.364 170.19 230.924 170.262C230.483 170.335 230.144 170.309 229.906 170.184C229.748 170.102 229.572 169.858 229.379 169.455C229.247 169.032 229.095 168.549 228.925 168.005C228.754 167.462 228.584 166.919 228.414 166.375C228.243 165.832 228.101 165.379 227.987 165.017L217.677 132.138C217.563 131.776 217.4 131.363 217.188 130.899C217.018 130.355 216.897 129.863 216.824 129.421C216.733 128.919 216.7 128.498 216.726 128.158C216.793 127.739 216.989 127.412 217.313 127.178Z" fill="#B0C9E8"/>
</svg>
